<?xml version="1.0" standalone="no"?>
<!DOCTYPE svg PUBLIC "-//W3C//DTD SVG 20010904//EN"
 "http://www.w3.org/TR/2001/REC-SVG-20010904/DTD/svg10.dtd">
<svg version="1.0" xmlns="http://www.w3.org/2000/svg"
 width="800.000000pt" height="800.000000pt" viewBox="0 0 800.000000 800.000000"
 preserveAspectRatio="xMidYMid meet">
<style>
    path { fill: #000000; }
    @media (prefers-color-scheme: dark) {
      path { fill: #ffffff; }
    }
</style>
<g transform="translate(0.000000,800.000000) scale(0.100000,-0.100000)"
fill="#000000" stroke="none">
<path d="M4835 7334 c-16 -2 -79 -9 -140 -15 -212 -21 -471 -76 -690 -146
-365 -117 -765 -337 -967 -531 -86 -83 -103 -113 -77 -139 7 -7 1 -20 -21 -44
-78 -84 -141 -202 -193 -364 -30 -93 -32 -110 -31 -230 1 -107 5 -141 22 -189
76 -207 271 -347 572 -412 185 -39 528 -26 790 32 395 88 946 349 1309 622
355 266 553 551 576 827 27 316 -136 494 -518 566 -91 17 -158 22 -357 24
-135 2 -258 1 -275 -1z m524 -114 c63 -6 143 -17 178 -25 190 -44 313 -165
313 -307 0 -123 -67 -242 -232 -414 -175 -183 -337 -307 -609 -469 -437 -261
-818 -406 -1208 -461 -122 -17 -399 -19 -497 -4 -254 39 -409 153 -450 329
-55 233 62 519 278 677 26 20 46 40 43 45 -12 18 352 237 523 315 406 187 768
280 1237 317 94 8 319 6 424 -3z"/>
<path d="M7005 7100 c-48 -19 -48 -22 -41 -328 11 -479 -23 -793 -139 -1252
-163 -649 -416 -1086 -760 -1316 -301 -200 -603 -215 -895 -44 -56 32 -77 40
-89 33 -28 -17 -23 -38 22 -99 55 -75 155 -144 262 -181 74 -26 91 -28 235
-27 139 1 164 3 245 28 360 110 669 406 885 851 172 352 292 800 345 1287 16
151 36 553 28 576 -3 6 -1 12 3 12 11 0 111 -336 164 -549 256 -1046 286
-2170 84 -3171 -146 -720 -354 -1171 -703 -1521 -354 -354 -807 -500 -1224
-394 -183 47 -324 109 -447 197 -112 80 -127 88 -158 88 -33 0 -62 -27 -62
-57 0 -44 65 -149 134 -217 126 -124 245 -199 400 -251 383 -129 815 -78 1179
139 549 327 896 885 1067 1712 43 208 100 643 115 879 4 55 9 111 12 125 12
65 10 816 -3 1005 -51 730 -181 1386 -414 2085 -68 207 -127 349 -157 382 -17
19 -54 22 -88 8z"/>
<path d="M1718 6393 c-42 -49 -225 -358 -300 -508 -172 -344 -233 -493 -375
-925 -108 -326 -344 -1125 -462 -1561 -97 -360 -177 -740 -237 -1134 -25 -161
-28 -207 -28 -435 -1 -277 11 -374 61 -535 86 -274 271 -472 515 -553 340
-113 754 -39 1428 255 446 195 816 406 932 531 33 36 39 48 33 70 -8 34 -20
48 -45 55 -31 8 -172 -45 -375 -141 -350 -165 -617 -273 -920 -372 -548 -179
-814 -201 -1038 -88 -151 76 -283 264 -338 480 -28 109 -35 374 -20 672 17
320 52 533 161 984 152 624 461 1639 658 2164 38 100 79 213 91 249 30 92 188
479 193 474 2 -2 0 -48 -5 -102 -9 -117 6 -411 33 -633 76 -615 253 -1205 502
-1680 120 -228 181 -319 301 -447 71 -75 111 -100 133 -82 33 27 8 90 -128
326 -163 285 -188 332 -246 453 -150 319 -269 670 -347 1031 -85 395 -138 895
-134 1259 2 175 1 205 -12 208 -8 1 -22 -5 -31 -15z"/>
</g>
</svg>
